<?xml version="1.0" encoding="UTF-8" standalone="no"?>
<!DOCTYPE svg PUBLIC "-//W3C//DTD SVG 1.1//EN" "http://www.w3.org/Graphics/SVG/1.1/DTD/svg11.dtd">
<svg width="300.00" height="300.00" viewBox="0.00 0.00 300.00 300.00" xmlns="http://www.w3.org/2000/svg" xmlns:xlink="http://www.w3.org/1999/xlink">
<g stroke-linecap="round" id="レイヤー_2">
<path d="M153.31,22.73 C159.86,22.74 175.89,24.65 183.30,26.31 C191.57,28.17 204.90,33.16 211.55,36.43 C218.43,39.84 231.14,47.83 236.90,52.62 C242.67,57.45 253.20,68.25 258.00,74.27 C262.06,79.39 270.25,93.21 273.47,100.15 C277.03,107.86 281.08,120.34 282.74,128.67 C284.21,136.18 285.71,152.17 285.43,158.69 C285.09,166.39 282.91,181.32 281.09,188.61 C279.24,195.88 273.66,209.82 270.09,216.61 C266.64,223.16 258.78,235.04 253.19,241.41 C248.17,247.10 236.33,258.07 231.03,261.94 C225.72,265.78 211.62,273.66 204.66,276.67 C196.87,280.02 183.15,283.82 175.85,285.08 C168.29,286.37 153.31,287.37 145.83,286.88 C138.32,286.37 123.46,283.82 116.03,281.77 C109.74,280.02 94.99,273.66 88.31,269.93 C80.89,265.78 70.28,258.07 64.04,252.31 C58.44,247.10 47.83,235.04 44.22,229.60 C39.97,223.16 32.96,209.82 30.15,202.84 C27.37,195.88 23.70,181.32 22.58,173.73 C21.53,166.39 20.90,152.17 21.68,143.73 C22.40,136.18 25.53,120.34 27.55,114.10 C29.58,107.86 36.36,93.21 40.22,86.68 C44.55,79.39 53.42,68.25 58.58,62.94 C63.94,57.45 75.47,47.83 81.81,43.83 C88.18,39.84 101.71,33.16 108.92,30.45 C115.05,28.17 130.72,24.65 138.31,23.74 C142.08,23.29 150.44,22.73 153.31,22.73 Z" fill="none" stroke="rgb(255, 255, 255)" stroke-width="8.00" stroke-opacity="1.00" stroke-linejoin="round"/>
</g>
</svg>
