<?xml version="1.0" encoding="UTF-8" standalone="no"?>
<!DOCTYPE svg PUBLIC "-//W3C//DTD SVG 1.1//EN" "http://www.w3.org/Graphics/SVG/1.1/DTD/svg11.dtd">
<svg width="300.00" height="300.00" viewBox="0.00 0.00 300.00 300.00" xmlns="http://www.w3.org/2000/svg" xmlns:xlink="http://www.w3.org/1999/xlink">
<g stroke-linecap="round" transform="translate(-2.00, -12.00)" id="レイヤー_2">
<path d="M153.17,22.04 C160.05,22.05 176.89,24.06 184.66,25.80 C193.34,27.76 207.35,33.00 214.33,36.43 C221.55,40.01 234.89,48.40 240.94,53.43 C247.00,58.50 258.05,69.84 263.10,76.16 C267.36,81.54 275.96,96.04 279.34,103.33 C283.08,111.43 287.33,124.53 289.07,133.28 C290.62,141.16 292.19,157.95 291.90,164.80 C291.54,172.89 289.26,188.56 287.34,196.22 C285.40,203.85 279.54,218.48 275.80,225.62 C272.17,232.50 263.92,244.97 258.05,251.66 C252.78,257.63 240.34,269.15 234.78,273.21 C229.20,277.25 214.40,285.51 207.09,288.68 C198.92,292.19 184.51,296.19 176.84,297.51 C168.90,298.86 153.17,299.92 145.32,299.40 C137.44,298.86 121.83,296.19 114.03,294.04 C107.42,292.19 91.94,285.51 84.92,281.61 C77.13,277.25 65.99,269.15 59.44,263.10 C53.56,257.63 42.42,244.97 38.62,239.26 C34.17,232.50 26.80,218.48 23.85,211.15 C20.94,203.85 17.08,188.56 15.91,180.59 C14.80,172.89 14.15,157.95 14.96,149.09 C15.71,141.16 19.00,124.53 21.12,117.98 C23.26,111.43 30.37,96.04 34.43,89.19 C38.97,81.54 48.28,69.84 53.71,64.26 C59.34,58.50 71.45,48.40 78.10,44.20 C84.79,40.01 98.99,33.00 106.57,30.15 C113.00,27.76 129.45,24.06 137.42,23.10 C141.38,22.63 150.16,22.04 153.17,22.04 Z" fill="none" stroke="rgb(255, 255, 255)" stroke-width="8.00" stroke-opacity="1.00" stroke-linejoin="round"/>
<path d="M179.41,79.22 C185.79,79.23 200.77,81.36 207.83,83.26 C213.96,84.94 227.85,91.22 234.01,94.98 C240.10,98.72 251.01,108.05 255.93,113.42 C261.28,119.32 268.76,130.76 271.91,137.16 C275.41,144.34 279.36,156.48 280.74,164.36 C281.96,171.39 282.63,185.03 281.77,192.95 C280.95,200.19 277.60,214.15 274.88,220.76 C272.11,227.42 264.56,240.67 260.58,245.62 C255.99,251.31 245.13,261.84 239.97,265.60 C234.80,269.34 221.43,276.42 214.60,279.03 C208.66,281.28 193.72,284.37 186.54,284.95 C179.41,285.49 165.10,284.37 157.96,282.90 C150.16,281.28 137.39,276.42 131.08,273.09 C124.02,269.34 113.69,261.84 107.95,256.29 C102.83,251.31 94.26,240.67 90.31,233.75 C86.71,227.42 81.22,214.15 79.54,207.21 C77.87,200.19 76.19,185.03 76.49,178.69 C76.86,171.39 79.46,156.48 81.42,150.41 C83.41,144.34 90.06,130.76 94.05,124.63 C97.54,119.32 107.81,108.05 113.28,103.35 C118.73,98.72 130.97,91.22 137.60,88.21 C144.86,84.94 158.05,81.36 165.11,80.35 C168.71,79.84 176.56,79.22 179.41,79.22 Z" fill="none" stroke="rgb(255, 255, 255)" stroke-width="8.00" stroke-opacity="1.00" stroke-linejoin="round"/>
<path d="M114.07,104.89 Q127.85,104.89 141.62,104.89 Q146.12,104.89 146.12,109.39 Q146.12,153.38 146.12,197.38 Q146.12,201.88 141.62,201.88 Q127.85,201.88 114.07,201.88 Q109.57,201.88 109.57,197.38 Q109.57,153.38 109.57,109.39 Q109.57,104.89 114.07,104.89 Z" fill="none" stroke="rgb(255, 255, 255)" stroke-width="8.00" stroke-opacity="1.00" stroke-linejoin="round"/>
<path d="M117.83,108.30 Q118.28,108.30 118.73,108.30 Q123.23,108.30 123.23,112.80 Q123.23,153.55 123.23,194.30 Q123.23,198.80 118.73,198.80 Q118.28,198.80 117.83,198.80 Q113.33,198.80 113.33,194.30 Q113.33,153.55 113.33,112.80 Q113.33,108.30 117.83,108.30 Z" fill="none" stroke="rgb(255, 255, 255)" stroke-width="12.00" stroke-opacity="1.00" stroke-linejoin="round"/>
<path d="M134.56,109.33 Q135.36,109.33 136.15,109.33 Q140.65,109.33 140.65,113.83 Q140.65,152.70 140.65,191.57 Q140.65,196.07 136.15,196.07 Q135.36,196.07 134.56,196.07 Q130.06,196.07 130.06,191.57 Q130.06,152.70 130.06,113.83 Q130.06,109.33 134.56,109.33 Z" fill="none" stroke="rgb(255, 255, 255)" stroke-width="12.00" stroke-opacity="1.00" stroke-linejoin="round"/>
<path d="M129.73,235.39 L103.48,206.13 L155.65,205.66 L129.73,235.39 Z" fill="none" stroke="rgb(255, 255, 255)" stroke-width="17.00" stroke-opacity="1.00" stroke-linejoin="miter"/>
<path d="M127.06,227.06 L118.51,213.37 L135.45,213.22 L127.06,227.06 Z" fill="none" stroke="rgb(255, 255, 255)" stroke-width="17.00" stroke-opacity="1.00" stroke-linejoin="miter"/>
<path d="M137.59,215.66 L134.38,210.03 L140.73,209.97 L137.59,215.66 Z" fill="none" stroke="rgb(255, 255, 255)" stroke-width="17.00" stroke-opacity="1.00" stroke-linejoin="miter"/>
</g>
</svg>
