<?xml version="1.0" encoding="UTF-8" standalone="no"?>
<!DOCTYPE svg PUBLIC "-//W3C//DTD SVG 1.1//EN" "http://www.w3.org/Graphics/SVG/1.1/DTD/svg11.dtd">
<svg width="300.00" height="300.00" viewBox="0.00 0.00 300.00 300.00" xmlns="http://www.w3.org/2000/svg" xmlns:xlink="http://www.w3.org/1999/xlink">
<g stroke-linecap="round" transform="translate(-2.00, -12.00)" id="レイヤー_2">
<path d="M153.17,22.04 C160.05,22.05 176.89,24.06 184.66,25.80 C193.34,27.76 207.35,33.00 214.33,36.43 C221.55,40.01 234.89,48.40 240.94,53.43 C247.00,58.50 258.05,69.84 263.10,76.16 C267.36,81.54 275.96,96.04 279.34,103.33 C283.08,111.43 287.33,124.53 289.07,133.28 C290.62,141.16 292.19,157.95 291.90,164.80 C291.54,172.89 289.26,188.56 287.34,196.22 C285.40,203.85 279.54,218.48 275.80,225.62 C272.17,232.50 263.92,244.97 258.05,251.66 C252.78,257.63 240.34,269.15 234.78,273.21 C229.20,277.25 214.40,285.51 207.09,288.68 C198.92,292.19 184.51,296.19 176.84,297.51 C168.90,298.86 153.17,299.92 145.32,299.40 C137.44,298.86 121.83,296.19 114.03,294.04 C107.42,292.19 91.94,285.51 84.92,281.61 C77.13,277.25 65.99,269.15 59.44,263.10 C53.56,257.63 42.42,244.97 38.62,239.26 C34.17,232.50 26.80,218.48 23.85,211.15 C20.94,203.85 17.08,188.56 15.91,180.59 C14.80,172.89 14.15,157.95 14.96,149.09 C15.71,141.16 19.00,124.53 21.12,117.98 C23.26,111.43 30.37,96.04 34.43,89.19 C38.97,81.54 48.28,69.84 53.71,64.26 C59.34,58.50 71.45,48.40 78.10,44.20 C84.79,40.01 98.99,33.00 106.57,30.15 C113.00,27.76 129.45,24.06 137.42,23.10 C141.38,22.63 150.16,22.04 153.17,22.04 Z" fill="none" stroke="rgb(255, 255, 255)" stroke-width="8.00" stroke-opacity="1.00" stroke-linejoin="round"/>
<path d="M179.41,79.22 C185.79,79.23 200.77,81.36 207.83,83.26 C213.96,84.94 227.85,91.22 234.01,94.98 C240.10,98.72 251.01,108.05 255.93,113.42 C261.28,119.32 268.76,130.76 271.91,137.16 C275.41,144.34 279.36,156.48 280.74,164.36 C281.96,171.39 282.63,185.03 281.77,192.95 C280.95,200.19 277.60,214.15 274.88,220.76 C272.11,227.42 264.56,240.67 260.58,245.62 C255.99,251.31 245.13,261.84 239.97,265.60 C234.80,269.34 221.43,276.42 214.60,279.03 C208.66,281.28 193.72,284.37 186.54,284.95 C179.41,285.49 165.10,284.37 157.96,282.90 C150.16,281.28 137.39,276.42 131.08,273.09 C124.02,269.34 113.69,261.84 107.95,256.29 C102.83,251.31 94.26,240.67 90.31,233.75 C86.71,227.42 81.22,214.15 79.54,207.21 C77.87,200.19 76.19,185.03 76.49,178.69 C76.86,171.39 79.46,156.48 81.42,150.41 C83.41,144.34 90.06,130.76 94.05,124.63 C97.54,119.32 107.81,108.05 113.28,103.35 C118.73,98.72 130.97,91.22 137.60,88.21 C144.86,84.94 158.05,81.36 165.11,80.35 C168.71,79.84 176.56,79.22 179.41,79.22 Z" fill="none" stroke="rgb(255, 255, 255)" stroke-width="8.00" stroke-opacity="1.00" stroke-linejoin="round"/>
<path d="M265.09,131.01 Q265.11,144.78 265.13,158.55 Q265.13,163.05 260.63,163.06 Q216.64,163.12 172.65,163.18 Q168.15,163.18 168.14,158.68 Q168.12,144.91 168.10,131.14 Q168.10,126.64 172.60,126.63 Q216.59,126.58 260.59,126.52 Q265.09,126.51 265.09,131.01 Z" fill="none" stroke="rgb(255, 255, 255)" stroke-width="8.00" stroke-opacity="1.00" stroke-linejoin="round"/>
<path d="M261.68,134.77 Q261.68,135.22 261.68,135.67 Q261.69,140.17 257.19,140.18 Q216.44,140.24 175.69,140.29 Q171.19,140.30 171.18,135.80 Q171.18,135.34 171.18,134.89 Q171.18,130.39 175.68,130.39 Q216.43,130.33 257.18,130.28 Q261.68,130.27 261.68,134.77 Z" fill="none" stroke="rgb(255, 255, 255)" stroke-width="12.00" stroke-opacity="1.00" stroke-linejoin="round"/>
<path d="M260.68,151.51 Q260.68,152.30 260.68,153.09 Q260.69,157.59 256.19,157.60 Q217.32,157.65 178.44,157.70 Q173.94,157.71 173.94,153.21 Q173.94,152.42 173.94,151.62 Q173.93,147.12 178.43,147.12 Q217.30,147.06 256.17,147.01 Q260.67,147.01 260.68,151.51 Z" fill="none" stroke="rgb(255, 255, 255)" stroke-width="12.00" stroke-opacity="1.00" stroke-linejoin="round"/>
<path d="M135.11,144.08 L164.66,118.16 L164.55,170.33 L135.11,144.08 Z" fill="none" stroke="rgb(255, 255, 255)" stroke-width="17.00" stroke-opacity="1.00" stroke-linejoin="miter"/>
<path d="M143.47,141.50 L157.25,133.11 L157.22,150.05 L143.47,141.50 Z" fill="none" stroke="rgb(255, 255, 255)" stroke-width="17.00" stroke-opacity="1.00" stroke-linejoin="miter"/>
<path d="M154.75,152.16 L160.41,149.01 L160.40,155.37 L154.75,152.16 Z" fill="none" stroke="rgb(255, 255, 255)" stroke-width="17.00" stroke-opacity="1.00" stroke-linejoin="miter"/>
</g>
</svg>
