<?xml version="1.0" encoding="UTF-8" standalone="no"?>
<!DOCTYPE svg PUBLIC "-//W3C//DTD SVG 1.1//EN" "http://www.w3.org/Graphics/SVG/1.1/DTD/svg11.dtd">
<svg width="300.00" height="300.00" viewBox="0.00 0.00 300.00 300.00" xmlns="http://www.w3.org/2000/svg" xmlns:xlink="http://www.w3.org/1999/xlink">
<g stroke-linecap="round" id="レイヤー_4">
<path d="M101.72,153.84 Q101.68,144.78 101.65,135.72 Q101.65,135.30 102.07,135.30 Q139.05,135.17 176.02,135.05 Q176.44,135.05 176.44,135.46 Q176.47,144.52 176.50,153.58 Q176.50,154.00 176.09,154.00 Q139.11,154.13 102.13,154.26 Q101.72,154.26 101.72,153.84 Z" fill="none" stroke="rgb(255, 255, 255)" stroke-width="10.00" stroke-opacity="1.00" stroke-linejoin="round"/>
<path d="M104.46,150.04 Q104.44,144.08 104.42,138.12 Q104.42,137.70 104.83,137.70 Q138.88,137.59 172.93,137.47 Q173.35,137.47 173.35,137.89 Q173.37,143.84 173.39,149.80 Q173.39,150.22 172.97,150.22 Q138.93,150.34 104.88,150.45 Q104.46,150.46 104.46,150.04 Z" fill="none" stroke="rgb(255, 255, 255)" stroke-width="8.00" stroke-opacity="1.00" stroke-linejoin="round"/>
<path d="M106.86,146.58 Q106.85,144.59 106.85,142.59 Q106.85,142.18 107.26,142.18 Q139.24,142.07 171.22,141.96 Q171.64,141.95 171.64,142.37 Q171.65,144.37 171.65,146.36 Q171.65,146.78 171.24,146.78 Q139.26,146.89 107.28,147.00 Q106.86,147.00 106.86,146.58 Z" fill="none" stroke="rgb(255, 255, 255)" stroke-width="10.00" stroke-opacity="1.00" stroke-linejoin="round"/>
</g>
</svg>
